<?xml version="1.0" encoding="utf-8"?>
<!-- Generator: Adobe Illustrator 19.0.0, SVG Export Plug-In . SVG Version: 6.00 Build 0)  -->
<svg version="1.1" id="Layer_1" xmlns="http://www.w3.org/2000/svg" xmlns:xlink="http://www.w3.org/1999/xlink" x="0px" y="0px"
	 viewBox="-290 382 30 30" style="enable-background:new -290 382 30 30;" xml:space="preserve">
<style type="text/css">
	.st0{fill:#292B30;}
</style>
<g>
	<g>
		<g>
			<g>
				<path class="st0" d="M-272.6,396.5c-0.7,0.2-1.5,0.3-2.3,0.3c-4.4,0-8-3.6-8-8c0-2.4,1-4.5,2.7-5.9c-2,0.7-3.7,1.9-5.2,3.4
					c-3.6,3.8-4.9,8.3-3.8,13.4c1.4,6.5,7.4,11.4,14,11.4c4.7,0,9.4,0,14.1,0c0.2,0,0.4,0,0.8,0C-261,403.3-265.1,398.5-272.6,396.5
					z"/>
			</g>
		</g>
		<g>
			<path class="st0" d="M-266.9,388.9c0,3.6-2.4,6.7-5.7,7.7c4,0,8,0,12,0c0.2-5.3-3.2-11-8.7-13.3
				C-267.8,384.7-266.9,386.7-266.9,388.9z"/>
			<path class="st0" d="M-272.5,396.5c4.3-0.2,7.7-3.7,7.7-8c0-1-0.2-1.9-0.5-2.8c-1.1-1-2.4-1.9-3.9-2.5c1.4,1.4,2.3,3.4,2.3,5.6
				C-266.9,392.5-269.2,395.5-272.5,396.5z"/>
		</g>
	</g>
	<path class="st0" d="M-275.5,388c0,0,2-1.9,1.8-3.2c0,0,2,0.8,0.7,4.1C-272.9,388.9-274.1,388.9-275.5,388z"/>
</g>
</svg>
