<?xml version="1.0" encoding="utf-8"?>
<!-- Generator: Adobe Illustrator 19.0.0, SVG Export Plug-In . SVG Version: 6.00 Build 0)  -->
<svg version="1.1" id="f622ef11-673b-443b-b2c3-35d70219ab5c"
	 xmlns="http://www.w3.org/2000/svg" xmlns:xlink="http://www.w3.org/1999/xlink" x="0px" y="0px" viewBox="430.1 -304.5 1000 710"
	 style="enable-background:new 430.1 -304.5 1000 710;" xml:space="preserve">
<style type="text/css">
	.st0{fill:#F2F2F2;}
	.st1{fill:#3F3D56;}
	.st2{fill:none;stroke:#3F3D56;stroke-width:2;stroke-miterlimit:10;}
	.st3{fill:#E03997;}
	.st4{fill:#E6E8EC;}
	.st5{fill:#FFFFFF;}
	.st6{fill:#FF6584;}
	.st7{fill:#2F2E41;}
	.st8{fill:#9F616A;}
	.st9{opacity:0.1;enable-background:new    ;}
	.st10{fill:#EFB7B9;}
	.st11{opacity:0.1;}
	.st12{fill:#A1616A;}
	.st13{fill:#D0CDE1;}
</style>
<title>social influencer</title>
<path class="st0" d="M1400.3,119c0,117.9-70.1,159-156.5,159c-86.4,0-156.5-41.2-156.5-159s156.5-267.8,156.5-267.8
	S1400.3,1.1,1400.3,119z"/>
<polygon class="st1" points="1238.1,260 1239.8,161.4 1306.5,39.3 1240,145.9 1240.7,101.5 1286.7,13.2 1240.9,89.8 1240.9,89.8 
	1242.2,10 1291.4,-60.3 1242.4,-2.5 1243.2,-148.8 1238.1,44.8 1238.6,36.9 1188.5,-39.8 1237.7,52.2 1233.1,141.3 1232.9,138.9 
	1175.3,58.3 1232.8,147.3 1232.2,158.4 1232.1,158.6 1232.1,159.5 1220.3,385.5 1236.1,385.5 1238,268.8 1295.4,180 "/>
<path class="st0" d="M544.5,314.3c0,31.9-18.9,43-42.3,43c-23.4,0-42.3-11.1-42.3-43s42.3-72.4,42.3-72.4S544.5,282.4,544.5,314.3z"
	/>
<polygon class="st1" points="500.7,352.4 501.1,325.7 519.1,292.7 501.2,321.5 501.3,309.5 513.8,285.7 501.4,306.4 501.4,306.4 
	501.7,284.8 515.1,265.8 501.8,281.4 502,241.8 500.6,294.2 500.8,292 487.2,271.3 500.5,296.2 499.3,320.3 499.2,319.6 
	483.6,297.8 499.2,321.9 499,324.9 499,325 499,325.2 495.8,386.3 500.1,386.3 500.6,354.8 516.1,330.8 "/>
<line class="st2" x1="465.8" y1="386.4" x2="1317.8" y2="386.4"/>
<path class="st3" d="M1318.3,357.8c0,21.6-12.8,29.1-28.6,29.1c-0.4,0-0.7,0-1.1,0c-0.7,0-1.5-0.1-2.2-0.1c-14.3-1-25.4-8.9-25.4-29
	c0-20.7,26.5-46.9,28.5-48.9l0,0c0.1-0.1,0.1-0.1,0.1-0.1S1318.3,336.2,1318.3,357.8z"/>
<path class="st1" d="M1288.6,383.6l10.5-14.6l-10.5,16.2l0,1.7c-0.7,0-1.5-0.1-2.2-0.1l1.1-21.6l0-0.2l0,0l0.1-2l-10.5-16.3
	l10.6,14.7l0,0.4l0.9-16.3l-9-16.8l9.1,14l0.9-33.8l0-0.1v0.1l-0.1,26.6l9-10.6l-9,12.9l-0.2,14.6l8.4-14l-8.4,16.1l-0.1,8.1
	l12.2-19.5l-12.2,22.3L1288.6,383.6z"/>
<path class="st1" d="M1007.6-134.1h5.5c1.2,0,2.2,1,2.2,2.2v77.2c0,1.2-1,2.2-2.2,2.2h-5.5c-1.2,0-2.2-1-2.2-2.2v-77.2
	C1005.4-133.2,1006.4-134.1,1007.6-134.1z"/>
<path class="st1" d="M677.9-198h2.7c0.8,0,1.4,0.6,1.4,1.4v24c0,0.8-0.6,1.4-1.4,1.4h-2.7c-0.8,0-1.4-0.6-1.4-1.4v-24
	C676.5-197.4,677.1-198,677.9-198z"/>
<path class="st1" d="M677.9-148.9h3c0.9,0,1.6,0.7,1.6,1.6v43.5c0,0.9-0.7,1.6-1.6,1.6h-3c-0.9,0-1.6-0.7-1.6-1.6v-43.5
	C676.3-148.2,677-148.9,677.9-148.9z"/>
<path class="st1" d="M677.9-85.8h2.9c0.9,0,1.5,0.7,1.5,1.5v44.1c0,0.9-0.7,1.5-1.5,1.5h-2.9c-0.9,0-1.5-0.7-1.5-1.5v-44.1
	C676.4-85.1,677.1-85.8,677.9-85.8z"/>
<path class="st1" d="M713.9-286.8h262.6c18.9,0,34.2,15.3,34.2,34.2v604.4c0,18.9-15.3,34.2-34.2,34.2H713.9
	c-18.9,0-34.2-15.3-34.2-34.2v-604.4C679.6-271.5,695-286.8,713.9-286.8z"/>
<path class="st4" d="M815.7-266.7H857c1.3,0,2.4,1.1,2.4,2.4v4.5c0,1.3-1.1,2.4-2.4,2.4h-41.4c-1.3,0-2.4-1.1-2.4-2.4v-4.5
	C813.2-265.6,814.3-266.7,815.7-266.7z"/>
<circle class="st4" cx="871.8" cy="-262" r="5.3"/>
<path class="st5" d="M990.3-243v585.3c0,14.5-11.8,26.3-26.3,26.3H726.4c-14.5,0-26.3-11.8-26.3-26.3V-243
	c0-14.5,11.8-26.3,26.3-26.3c0,0,0,0,0,0h35.6v4.6c0,12,9.7,21.7,21.7,21.7h120.8c12,0,21.7-9.7,21.7-21.7v-4.6H964
	C978.5-269.3,990.3-257.5,990.3-243C990.3-243,990.3-243,990.3-243z"/>
<rect x="699.7" y="-133.6" class="st0" width="290.7" height="333.9"/>
<path class="st6" d="M720.8,246.5l-1.5-1.4c-5.4-5-9-8.2-9-12.3c-0.1-3.2,2.5-5.8,5.6-5.8c0.1,0,0.1,0,0.2,0c1.8,0,3.6,0.8,4.7,2.2
	c1.2-1.4,2.9-2.2,4.7-2.2c3.2,0,5.8,2.5,5.8,5.7c0,0.1,0,0.1,0,0.2c0,4-3.6,7.3-9,12.3L720.8,246.5z"/>
<path class="st0" d="M776.3,241.4l3,0.8c1.8-5.2,7.5-8,12.7-6.2c1.2,0.4,2.2,1,3.2,1.8l-4.5,4.4h11.3v-11l-4.5,4.4
	c-5.4-4.8-13.7-4.2-18.4,1.2C777.8,238.2,776.9,239.7,776.3,241.4L776.3,241.4z"/>
<circle class="st3" cx="718.9" cy="-172" r="13.4"/>
<rect x="742.9" y="-179.6" class="st3" width="124.7" height="15.4"/>
<rect x="710.3" y="269.4" class="st0" width="124.7" height="15.4"/>
<rect x="710.3" y="302.9" class="st0" width="263.8" height="15.4"/>
<path class="st0" d="M764,245.5l-3.3-5.8c1.8-4.4-0.2-9.3-4.6-11.2c-4.4-1.8-9.3,0.2-11.2,4.6c-1.8,4.4,0.2,9.3,4.6,11.2
	c2.7,1.1,5.8,0.8,8.2-0.9L764,245.5z"/>
<path class="st7" d="M820.5-55.3L820.5-55.3C799.7-51,786.3-30.7,790.6-10l7.9,38.7l8.9-1.8l0.6-4.1l1.9,3.6l53.9-11l0.6-4.1
	l1.9,3.6l7.4-1.5l-7.9-38.7C861.5-46.1,841.3-59.5,820.5-55.3z"/>
<polygon class="st8" points="887.3,63.5 933.4,91.3 927.6,104.7 884.4,84.6 "/>
<path class="st3" d="M828.8,95.1c0,0-93.1,0-108.4,24c-15.4,24-2.9,57.6,45.1,65.2c48,7.7,193.8,11.5,205.3-17.3s2.9-45.1,2.9-45.1
	S923.8,87.5,828.8,95.1z"/>
<path class="st3" d="M911.3,118.2l50.9,19.2c0,0,21.1-15.4,10.6-32.6c-10.6-17.3-58.5-117.1-58.5-117.1s-13.4-19.2,3.8-29.7
	s24,6.7,24,6.7s-1,3.8,5.8,1c6.7-2.9,19.2,6.7,12.5,22.1s-11.5,19.2,2.9,18.2c5.2-0.3,9.8-4.1,13.5-8.7c7.1-8.9,3.9-16,3.4-27.3
	c-0.9-19.4-2.4-32.1-7.3-39.8c-6.7-10.6-16.3-19.2-41.3-14.4C906.5-79.5,870-55.5,878.7-21S906.5,52,906.5,52
	S919.9,105.7,911.3,118.2z"/>
<path class="st9" d="M911.3,118.2c-8.3,2.3-18.7,3.4-29.9,3.7c-19.6,0.6-41.6-1.1-59.1-3.1c-19-2.1-32.8-4.5-32.8-4.5
	c6.4-6,16.3-8.4,27.9-9.2c14.4-1.1,31.5,0.2,47.9-0.4c6.1-0.2,12.2,0.2,18.1,1.4C901.5,109.6,911.3,118.2,911.3,118.2z"/>
<circle class="st8" cx="828.3" cy="-11.8" r="26.9"/>
<path class="st8" d="M824.9,9.7c0,0,4.8,18.2,0,19.2c-4.8,1-16.3,5.8-16.3,5.8l14.4,5.8l26.9,24.9l23,11.5l11.5-3.8V52l-17.3-26.9
	c0,0-11.5,3.8-14.4-8.6s-8.6-17.3-8.6-17.3L824.9,9.7z"/>
<path class="st8" d="M818.2,35.6h-11.5c0,0-20.1,6.7-31.7,22.1s-29.7,30.7-29.7,30.7s-12.5,17.3-5.8,41.3s16.3,41.3,24.9,36.5
	c8.6-4.8-12.5-39.3-12.5-39.3l5.8-21.1c0,0,29.7-34.5,42.2-33.6c12.5,1,13.4,11.5,13.4,11.5l26.9,7.7l8.6-18.2l-4.8-19.2L818.2,35.6
	z"/>
<path class="st1" d="M887.3,96.1c-1.8,3.1-3.1,6.5-3.9,10c-1.2,5.2-1.9,10.5-2,15.8c-19.6,0.6-41.6-1.1-59.1-3.1
	c-1.6-4.1-3.3-8.9-4.9-13.7c-4.5-13-8.7-26.3-8.7-28.2c0-3.8,20.1,2.9,24.9,1.9c4.8-1,6.7-16.3,0-24c-6.7-7.7-26.4-20.6-26.4-20.6
	l6.7-1.9c0,0,14.9,11,45.6,29.3C890.2,79.8,877.7,51,877.7,51L860,23.7h7.7c0,0,14.9,25.4,22.5,36.9C897.9,72.1,895,83.6,887.3,96.1
	z"/>
<rect x="801.2" y="-43.4" transform="matrix(-0.9797 0.2005 -0.2005 -0.9797 1629.6539 -221.4003)" class="st7" width="49.7" height="30.5"/>
<circle class="st1" cx="952.1" cy="-58.9" r="14.4"/>
<circle class="st5" cx="952.1" cy="-58.9" r="7.7"/>
<path class="st3" d="M529.7,107.3l-1,7.6c-0.3,2.6-0.7,5.1-0.8,7.7c-0.6,8.6,0.5,17.2,0.2,25.8c-0.2,6.6-1.3,13.2-0.8,19.8
	c0.5,5.8,2.1,11.5,3.8,17.1l2.4,8c0.1,0.9,0.8,1.5,1.7,1.4c0.1,0,0.3,0,0.4-0.1l10.5-0.9c-0.7-3.1-1.4-6.3-1.8-9.4
	c-0.3-2.5-0.5-4.9-0.6-7.4c-0.6-7.7-1.2-15.4-1.8-23.2l-1.1-13.6c-0.5-5.9-1-11.8-2.4-17.5C536.7,116.9,533.8,111.6,529.7,107.3z"/>
<path class="st9" d="M529.7,107.3l-1,7.6c-0.3,2.6-0.7,5.1-0.8,7.7c-0.6,8.6,0.5,17.2,0.2,25.8c-0.2,6.6-1.3,13.2-0.8,19.8
	c0.5,5.8,2.1,11.5,3.8,17.1l2.4,8c0.1,0.9,0.8,1.5,1.7,1.4c0.1,0,0.3,0,0.4-0.1l10.5-0.9c-0.7-3.1-1.4-6.3-1.8-9.4
	c-0.3-2.5-0.5-4.9-0.6-7.4c-0.6-7.7-1.2-15.4-1.8-23.2l-1.1-13.6c-0.5-5.9-1-11.8-2.4-17.5C536.7,116.9,533.8,111.6,529.7,107.3z"/>
<path class="st1" d="M548.3,366.9c-0.6,1.2-1.2,2.5-1.6,3.7c-1.2,3.5-1.4,7.3-1.6,11c-0.1,0.7,0,1.4,0.2,2.1c0.5,1.3,2,2,3.4,2.4
	c5.8,1.6,11.9,0.1,17.9-0.4c5.9-0.5,11.8-0.1,17.6-1.4c0.8-0.2,1.7-0.4,2.4-0.8c1.5-0.9,2.5-2.4,3.1-4c0.2-0.4,0.3-0.9,0.3-1.3
	c0.2-2-1.5-3.7-3.4-4.3s-3.9-0.5-5.8-0.7c-8.3-0.8-14.9-7.1-16.3-15.3c-0.1-0.4-9.7-0.2-10.7,0.4c-1.2,0.6-1.9,2.3-2.6,3.4
	C550.2,363.2,549.2,365,548.3,366.9z"/>
<path class="st9" d="M548.3,366.9c-0.6,1.2-1.2,2.5-1.6,3.7c-1.2,3.5-1.4,7.3-1.6,11c-0.1,0.7,0,1.4,0.2,2.1c0.5,1.3,2,2,3.4,2.4
	c5.8,1.6,11.9,0.1,17.9-0.4c5.9-0.5,11.8-0.1,17.6-1.4c0.8-0.2,1.7-0.4,2.4-0.8c1.5-0.9,2.5-2.4,3.1-4c0.2-0.4,0.3-0.9,0.3-1.3
	c0.2-2-1.5-3.7-3.4-4.3s-3.9-0.5-5.8-0.7c-8.3-0.8-14.9-7.1-16.3-15.3c-0.1-0.4-9.7-0.2-10.7,0.4c-1.2,0.6-1.9,2.3-2.6,3.4
	C550.2,363.2,549.2,365,548.3,366.9z"/>
<path class="st1" d="M564.2,367.8c-0.6,1.2-1.2,2.5-1.6,3.7c-1.2,3.5-1.4,7.3-1.6,11c-0.1,0.7,0,1.4,0.2,2.1c0.5,1.3,2,2,3.4,2.4
	c5.8,1.6,11.9,0.1,17.9-0.4c5.9-0.5,11.8-0.1,17.6-1.4c0.8-0.2,1.7-0.4,2.4-0.8c1.5-0.9,2.5-2.4,3.1-4c0.2-0.4,0.3-0.9,0.3-1.3
	c0.2-2-1.5-3.7-3.4-4.3s-3.9-0.5-5.8-0.7c-8.3-0.8-14.9-7.1-16.3-15.3c-0.1-0.4-9.7-0.2-10.7,0.4c-1.2,0.6-1.9,2.3-2.6,3.4
	C566.1,364.1,565.1,365.9,564.2,367.8z"/>
<path class="st7" d="M605.7,273.1c0.1,19.3-5.5,38.1-12.1,56.2c-2.6,7.2-5.4,14.3-8.3,21.3c-1.7,4.2-3.7,8.8-1.8,12.9
	c-5.3-2-10.8-3.2-16.4-2.3c2.1-4.4,1.9-9.5,2-14.3c0.2-6.6,0.9-13.2,2.1-19.7c1.9-9.9,5.1-19.4,9.6-28.4c0.9-1.9,1.5-3.9,1.9-6
	c0.6-4.6,0.3-9.3-0.8-13.8c-2.1-10-6-19.6-11.5-28.2c0,0.2,0,0.4-0.1,0.6c-0.3,2.9-0.8,5.7-1.4,8.5c-1.3,6-2.7,11.9-2.5,17.9
	c0.2,6.4-0.2,12.7-1.2,19c-0.3,2.5-1,4.9-1.9,7.2c-0.6,1.4-1.4,2.7-1.9,4.1c-0.5,1.7-0.7,3.4-0.7,5.1c-0.7,14.5,0,33.1,3,47.3
	c-5-0.2-10,0.9-14.4,3.3c-3.6-10.1-5.9-24.5-7.6-35.1c-1.9-12.6-1.5-25.4,1.2-37.9c0.8-4.2,1.2-8.4,0.9-12.6
	c-0.4-8.4-2.5-16.7-4.5-24.8c-1-4.2-2.1-8.3-3.1-12.5c-1.5-5.9-3-11.8-4.5-17.7c-1-3.9-2-8-1.7-12c0.2-2.2,0.7-4.4,1.4-6.5
	c2.2-7.2,5.6-14,9.9-20.2c17.2,1,34.6-0.6,51.7-2c0.8-0.2,1.7,0,2.4,0.4c0.6,0.6,0.9,1.4,1,2.2c2.1,12.2,4.3,24.3,6.4,36.5
	c1,5.1,1.7,10.2,1.8,15.4c0,5.2-0.8,10.3-0.6,15.5C604.3,259.5,605.6,266.1,605.7,273.1z"/>
<path class="st9" d="M570.4,251.4c-0.3,2.9-0.8,5.7-1.4,8.5c-3.7-6.5-7.8-12.8-11.2-19.4c-0.9-1.7-1.7-3.4-2.6-5.2
	c-0.8-1.7-1.7-3.5-2.5-5.2c-0.5-1-1-1.9-1.4-2.9c-0.7-1.4-1.2-2.9-1.6-4.5c1.3-0.2,4.3,3.1,5.3,4c1.9,1.9,3.7,3.9,5.4,5.9
	c2,2.3,3.9,4.7,5.6,7.3C568,243.6,569.6,247.4,570.4,251.4z"/>
<path class="st10" d="M584.7,74.1c0,0-9.5,15.2-7.8,18.4c1.8,3.2-30.1-2.8-30.1-2.8s17.3-15.2,15.6-21.6
	C560.7,61.7,584.7,74.1,584.7,74.1z"/>
<circle class="st10" cx="576.2" cy="57.1" r="21.6"/>
<path class="st3" d="M585,90c-2.3-3.2-5.4-5.7-9.1-7.3c-2.1-0.7-4.2-1.3-6.4-1.6l-8.6-1.5c-2.1-0.4-4.4-0.7-6.3,0.1
	c-1,0.5-1.9,1.2-2.7,2c-3,2.8-5.9,5.8-9.6,7.4c-1,0.4-2.1,0.8-3.1,1.2c-4.2,1.8-7.3,5.6-9.1,9.8c-1.9,4.4-1.9,9.2-1.8,14
	c0,1.7,0.2,3.3,0.5,4.9c0.4,1.5,1,3,1.6,4.5c1.2,3.1,2.2,6.3,3,9.6c2.2,8.5,4.1,17.2,5.6,25.9c0.1,1.3,0.5,2.5,1.1,3.6
	c0.8,1.1,1.8,2.1,3,2.9c0.9,0.7,1.7,1.6,2.5,2.5c0.4,0.4,0.6,0.8,0.8,1.4c0.3,1.3-0.9,2.4-1.8,3.3c-1.9,2-3.3,4.4-4,7
	c-0.5,0.5-0.7,1.2-0.6,1.9c0.2,0.5,0.3,1,0.2,1.5c-0.2,0.5-0.5,0.9-0.8,1.3c-0.8,1.1-1.2,2.5-0.9,3.8c6.7,2.9,13.8,4.6,21.1,4.9
	c1.8,0.1,3.6,0.1,5.3,0.3c1.3,0.2,2.5,0.4,3.8,0.6c1.8,0.2,3.7,0.2,5.5,0.1c9.6-0.2,19.5-0.4,28.3-4.2c0.8-4.5-1-9.1-2.1-13.6
	c-1.8-7.1-2.2-14.4-3.6-21.6c-0.9-4.9-2.2-9.8-3-14.7c-0.8-4.9-0.9-10.1,0.4-14.9c1.2-4.3,1.6-8.6,2.8-12.9
	c1.2-4.3,2.1-8.9,0.7-13.1C595.9,93.8,590.5,89.7,585,90z"/>
<path class="st7" d="M595.6,45.7c1-3.8-1-7.8-3.5-10.9c-2.7-3.3-6.1-6.4-10.3-7.2c-3.4-0.7-6.9,0.1-10.4-0.1c-3.1-0.2-6-1.3-9-1.7
	c-2.8-0.3-5.5-0.2-8.3,0.3c-2.6,0.4-5.1,1.1-7.5,2.1c-9.2,4.1-14.6,14.1-15.8,24.1s0.9,20,3.1,29.8l2,8.9c2,9.2,4.1,18.5,4.6,27.9
	s-0.5,19.1-4.4,27.7c12.5-6.7,22.3-17.7,27.4-31c1.4-3.6,2.4-7.4,4-11c1.3-3.1,3-6,4.2-9.2c1.3-3.6,2-7.3,1.9-11.1
	c-0.1-2.9-0.5-5.7-0.5-8.5c0.1-2.9,0.8-5.8,2.8-7.9c1.8-1.8,4.2-2.7,6.5-3.9c3.5-1.8,6.7-4.4,9.1-7.6c1.4-1.9,1.5-2.6,1.9-4.8
	C593.8,49.4,595.1,47.7,595.6,45.7z"/>
<path class="st10" d="M595.6,207.7c0.2,2.2-0.2,4.5,0.3,6.7c0.4,1.6,1.2,3.1,1.7,4.7c0.5,1.9,0.7,3.8,0.8,5.7
	c0.1,1.6-0.1,3.6-1.5,4.3c-0.6,0.3-1.4,0.3-2,0.6s-1.2,1.1-0.8,1.7c0.3,0.5,1,0.5,1.6,0.6s1.2,0.7,0.9,1.2c-0.1,0.2-0.3,0.3-0.5,0.3
	c-0.6,0.2-1.2,0.5-1.7,0.8c-0.5,0.4-0.8,1-0.7,1.6c0.1,0.5,0.7,0.9,1.2,0.7c0.1,0,0.2,0,0.2-0.1c-0.3,0.6-0.4,1.2-0.4,1.8
	c2.3,1,4.8-0.3,7-1.5c0.9-0.5,1.8-1.1,2.7-1.7c3.5-2.7,5.4-7,5.2-11.4c-0.1-1.1-0.3-2.2-0.5-3.3c-0.3-1.9-0.8-3.7-1.3-5.5
	c-0.6-1.9-1.5-3.8-2.2-5.6c-1.5-4-2.5-8.2-3.9-12.2c-0.1-0.8-0.8-1.3-1.6-1.3c0,0-0.1,0-0.1,0c-1.6-0.1-3.1,0.1-4.6,0.4
	c-0.9,0.3-2.4,0.9-2.8,1.8c-0.4,0.9,0.3,1.6,0.6,2.4C594.4,202.7,595.3,205.1,595.6,207.7z"/>
<path class="st9" d="M594.2,99.3c0.5,0.5,0.8,1,1.1,1.6c3.1,5.6,3.1,12.2,3.2,18.6c0.2,7.2,0.6,14.3,0.9,21.4l1.2,21.4
	c0.1,2,0.2,4.1,0.5,6.1c1.4,0.3,1.4,2.1,1.3,3.5c-1,8.7-3.4,17.7-0.9,26.1c0.1,0.4,0.3,0.8,0.6,1.2c-1.3-0.4-2.7-0.4-4-0.1
	c-1.3,0.3-2.5,0.7-3.8,1c-1.6,0.4-3.5,0.5-4.6,1.8c-1.3-3.8-2.2-7.6-3-11.5c-0.6-3.5-0.8-7.2-2.2-10.5c-0.6-1.3-1.4-2.6-2.1-3.8
	c-3.7-6.7-5.6-14.2-7.4-21.6c-0.8-3.5-1-7.2-0.6-10.8c0.3-1.6,0.4-3.3,0.4-4.9c-0.1-1.7-0.3-3.5-0.7-5.2c-0.8-5-0.4-10.2,1-15.1
	c1.3-4.5,2.5-9.3,5.3-13.1S589.5,99.4,594.2,99.3z"/>
<path class="st3" d="M595.2,98.6c0.5,0.5,0.8,1,1.1,1.6c3.1,5.6,3.1,12.2,3.2,18.6c0.2,7.2,0.6,14.3,0.9,21.4l1.2,21.4
	c0.1,2,0.2,4.1,0.5,6.1c1.4,0.3,1.4,2.1,1.3,3.5c-1,8.7-3.4,17.7-0.9,26.1c0.1,0.4,0.3,0.8,0.6,1.2c-1.3-0.4-2.7-0.4-4-0.1
	c-1.3,0.3-2.5,0.7-3.8,1c-1.6,0.4-3.5,0.5-4.6,1.8c-1.3-3.8-2.2-7.6-3-11.5c-0.6-3.5-0.8-7.2-2.2-10.5c-0.6-1.3-1.4-2.6-2.1-3.8
	c-3.7-6.7-5.6-14.2-7.4-21.6c-0.8-3.5-1-7.2-0.6-10.8c0.3-1.6,0.4-3.3,0.4-4.9c-0.1-1.7-0.3-3.5-0.7-5.2c-0.8-5-0.4-10.2,1-15.1
	c1.3-4.5,2.5-9.3,5.3-13.1C584.6,100.8,590.5,98.7,595.2,98.6z"/>
<g class="st11">
	<path d="M592.1,34.7c-2.7-3.3-6.1-6.4-10.3-7.2c-3.4-0.7-6.9,0.1-10.4-0.1c-3.1-0.2-6-1.3-9-1.7c-2.8-0.3-5.5-0.2-8.3,0.3
		c-2.6,0.4-5.1,1.1-7.5,2.1c-1.3,0.6-2.5,1.3-3.7,2.1c2.2-0.8,4.4-1.4,6.7-1.7c2.7-0.5,5.5-0.6,8.3-0.3c3,0.4,6,1.5,9,1.7
		c3.5,0.3,7-0.5,10.4,0.1c4.2,0.8,7.6,3.9,10.3,7.2c2.5,3.1,4.5,7.1,3.5,10.9c-0.6,2-1.8,3.8-2.2,5.9c-0.4,2.1-0.4,2.9-1.9,4.8
		c-1.8,2.4-4,4.4-6.5,6.1c0.7-0.3,1.4-0.7,2.1-1c3.5-1.8,6.7-4.4,9.1-7.6c1.4-1.9,1.5-2.6,1.9-4.8c0.4-2.1,1.6-3.8,2.2-5.9
		C596.7,41.8,594.6,37.9,592.1,34.7z"/>
	<path d="M576,67.7c0.4-0.4,0.8-0.7,1.2-1c-2.1,1-4.2,1.9-5.8,3.5c-2,2.1-2.7,5-2.8,7.9s0.4,5.7,0.5,8.5c0.1,3.8-0.6,7.6-1.9,11.1
		c-1.2,3.1-2.9,6.1-4.2,9.2c-1.5,3.6-2.6,7.4-4,11c-4.5,11.5-12.4,21.4-22.7,28.2c-0.1,0.1-0.1,0.2-0.2,0.4
		c12.5-6.7,22.3-17.7,27.4-31c1.4-3.6,2.4-7.4,4-11c1.3-3.1,3-6,4.2-9.2c1.3-3.6,2-7.3,1.9-11.1c-0.1-2.9-0.5-5.7-0.5-8.5
		S574,69.8,576,67.7z"/>
</g>
<path class="st7" d="M1049.6,384.7c-1,1.2-2.8,1.5-4.4,1.7c-2.1,0.3-4.1,0.3-6.2,0.1c-2.5-0.4-3.9,1-6.2,0c-1.4-0.6-3.4,0.6-4.8,0
	c-1.9-0.9-8.3-1.1-9.4-2.8c-1.1-1.7-1-4.5,0.8-5.5c0.5-0.2,1-0.4,1.6-0.6c3-1.2,9.1-10.2,12.2-10.6c1.6-0.1,3.2,0.3,4.5,1.1
	c3.1,1.4,8.7,2.5,10.1,6C1048.9,376.7,1051.8,382,1049.6,384.7z"/>
<path class="st7" d="M1072.2,384c1,1.2,2.8,1.5,4.4,1.7c2.1,0.3,4.1,0.3,6.2,0.1c2.5-0.4,5.4,1.7,7.7,0.7c1.4-0.6,3.4-0.3,4.8-1
	c1.9-0.9,10.6,1.1,11.7-0.6c1.1-1.7,1-4.5-0.8-5.5c-0.5-0.2-1-0.4-1.6-0.6c-3-1.2-12.9-12.1-16.1-12.6c-1.6-0.1-3.2,0.3-4.5,1.1
	c-3.1,1.4-8.7,2.5-10.1,6C1072.9,376,1070,381.3,1072.2,384z"/>
<path class="st7" d="M1082.1,188.1c1,1.9,1.8,3.8,2.6,5.8c8.7,23,9.4,48.2,9.8,72.9c0,4,0.2,8,0.7,12c0.4,2.5,0.9,5.1,0.6,7.6
	c-0.3,2.2-1.3,4.3-0.9,6.5c0.2,1,0.6,1.9,0.8,2.8c0.1,1.1,0.1,2.1-0.1,3.2l-1.2,8.7c-0.7,4.9-2.2,9.7-2.1,14.7
	c0.1,3.4,0.1,6.8,0.5,10.2c0.4,3.4,1.1,6.8,1.1,10.3c0,2.6-0.3,5.2-0.6,7.7c-0.3,3.6-0.4,7.3-0.2,11c0.1,2.8,0.5,5.7,2,8.1
	c-1.7,2.4-3.3,4.5-6,5.7c-5.4,2.4-11.7,1.6-17.6,0.7c0.3-1.1,0.8-2.3,0.4-3.3c-0.3-0.5-0.6-1-1-1.4c-1.3-1.8-2.2-3.9-2.6-6.1
	c-0.7-2.6-1.4-5.4,0-7.9c0.5-0.9,0.7-1.9,0.6-2.9c-1.2-16.3-4.9-33.2-1.5-49.3c0.4-1.7,0.8-3.4,1-5.1c0.2-2.5,0.2-5,0.1-7.5
	l-0.1-3.5c-0.2-3.7,0-7.5-0.8-11.2c-0.5-2.6-1.5-5.3-0.3-8c0.5-1.2,0.5-2.7-0.2-3.9c-2.6-4.5-4.7-9.3-6.2-14.3
	c-0.3-1.4-0.8-2.8-1.3-4.1c-0.7-1.4-1.6-2.7-2.6-4c-2.9-4.2-4.7-9.1-6.4-14c0.2-0.4,0-1.1-0.4-1c-0.5,0.1-0.9,0.4-1.1,0.8
	c-2.3,3.2-2.5,7.4-2.6,11.3c-0.2,3.6-0.1,7.3,0.2,10.9c0.2,1.9,0.5,3.8,0.7,5.7c0.2,3.6,0.2,7.1-0.2,10.7l-1.2,17.5
	c-0.2,1.4-0.1,2.9,0.3,4.3c0.8,2.5,1.1,5,1.1,7.6c-0.3,10.6,0.6,21.1,2.7,31.5c0.6,2.9,1.3,5.7,1.8,8.6c1.2,6.8,1.3,13.7,1.5,20.5
	c0.1,4.2,0.2,8.6-1.5,12.5c-0.7,1.2-1.1,2.5-1.4,3.8c0,0.7-0.1,1.4-0.3,2c-0.5,1.3-2,1.8-3.3,2.1c-2.5,0.5-5,0.7-7.5,0.5
	c-0.6,0-1.2-0.1-1.7-0.4c-0.9-0.5-1.4-1.5-2.2-2.3c-1.5-1.7-4.1-2.2-5.5-4c-1.8-2.3-1-5.5,0-8.2s2.3-5.6,1.4-8.3
	c-1.1-3.2-4.8-4.9-5.8-8.1c2.9-13-4.2-26.4-3.6-39.7c0.1-3.1,0.7-6.2,0.7-9.3c0-8-3.4-15.8-2.9-23.7c1.4-20.2-5.4-40.4-8.4-60.5
	c-0.6-3-0.8-6-0.6-9.1c0.4-5,2.8-9.7,5.6-13.9c2-3,4.4-5.9,7.8-7.3c2.7-1.2,5.8-1.2,8.8-1.1c7.4,0.1,14.9,0.1,22.3,0.2
	c5.1-0.1,10.1,0.4,15.1,1.3C1074.3,185.6,1078,187.5,1082.1,188.1z"/>
<path class="st12" d="M962.1,95.8c-0.7-3.5,0.6-7.3-0.4-10.7c-0.4-1.2-1.3-2.5-2.6-2.5c-1.3,0-2.1,1.3-3.2,1.9
	c-1.8,0.9-4,0.1-5.8-0.9c-1.8-0.9-3.8-2-5.7-1.4c-0.2,1.2,0.6,2.4,1.5,3.2c1,0.8,1.8,1.7,2.4,2.8c0.3,1.2,0.4,2.4,0.3,3.6
	c0.2,2.8,2,5.2,3.7,7.4c2.8,3.5,5.9,6.8,9,10c0,0,4.8-6,4.7-7c-0.1-1-1.7-1.9-2.3-2.7C963,98.4,962.4,97.2,962.1,95.8z"/>
<path class="st12" d="M1106.1,169.5c0.4,1.1,0.8,2.3,1,3.5c1.2,6,2,12.2,2.8,18.3c0.2,1.6,0.4,3.3,0.5,4.9c0.2,3.9-0.6,7.8-2.3,11.3
	c-1.8,3.5-4.8,6.2-8.5,7.6c-1.1,0.4-2.7,0.5-3.2-0.6c-0.2-0.5-0.2-1.1,0-1.6c0.4-1.6,1.4-3.1,1.9-4.7c0.9-2.4,1-4.9,0.4-7.4
	c-0.2-0.9-0.7-2-1.7-2.2c0.5,2.2,0.1,4.4-1.1,6.3c-0.3,0.5-0.7,0.9-1.3,1.1c-0.8,0.1-1.6-0.4-1.8-1.2c-0.2-0.8-0.3-1.6-0.1-2.3
	c0.3-3.9,0.9-7.8,1.8-11.7c1.1-4.2,2.7-8.4,2.6-12.7c-0.1-3.9-1.7-7.8-1.2-11.7c0-0.2,0.1-0.5,0.2-0.7c0.1-0.1,0.3-0.2,0.5-0.3
	c1.1-0.5,2.2-0.8,3.4-1.1c0.7-0.2,3-1,3.7-0.6c0.5,0.3,0.7,2,1,2.6C1105,167.5,1105.7,168.5,1106.1,169.5z"/>
<circle class="st12" cx="1028.5" cy="36.9" r="16.1"/>
<path class="st12" d="M1042.8,48.5c0,1,0.1,2,0.2,3.1c0.2,1,0.5,2,0.9,3c0.5,1.6,1.3,3.1,2.3,4.4c1,1.4,2.4,2.3,4.1,2.6
	c-11,5.1-22.7,8.5-34.7,10c1.9-1.3,3.5-2.9,4.6-4.9c0.6-1.3,1-2.6,1.2-4c1-5.8,0.5-11.8-1.5-17.3c-0.2-0.5-0.4-1.2,0-1.7
	c0.2-0.2,0.4-0.3,0.6-0.4c4.8-2,9.9-3,15.1-2.8c1.3,0,2.6,0.1,4,0.2c0.7,0.1,2.3-0.1,2.8,0.4c0.7,0.6,0.3,2.5,0.4,3.4L1042.8,48.5z"
	/>
<path class="st13" d="M1051.4,60.2c-4.9-6.2-13.3-8.3-20.6-5.1c-7.6,3.7-11.4,12.4-18.1,17.6c-1.5,1.1-3.2,2.1-4.9,3
	c-1,0.6-2.1,1-3.2,1.3c-1.3,0.3-2.6,0.2-3.8,0.5c-2.4,0.7-4.4,2.3-5.7,4.4c-0.6,1.1-1.3,2.2-2.1,3.2c-0.7,0.8-1.6,1.5-2.3,2.3
	c-2.7,2.9-3.4,7-4,10.9c-2.1,2.2-4.4,4.2-6.8,6c-0.8,0.6-1.6,1.1-2.5,1.4c-2.4,0.8-4.9-0.2-7-1.7s-3.6-3.4-5.6-4.8
	c-1.8,2.6-3.7,5.2-5.7,7.7c-0.3,0.5-0.7,0.8-1.3,1c-0.4,1.2,0.5,2.5,1.2,3.6l3.5,5.9c1.2,2.1,2.6,4.1,4.2,5.9c1.7,1.8,4,2.9,6.4,3.1
	c1.5,0,3.1-0.3,4.5-0.9c6.7-2.2,12.8-5.8,19.2-8.9c1.2-0.7,2.4-1,3.8-1.1c1.4,0,2.6,0.8,3,2.1c0.7,3.7,1.5,7.3,2.5,11
	c0.9,3.4,1.8,6.8,2.6,10.3c0.5,2.1,0.9,4.3,1.2,6.4c0.1,1.2,0.1,2.5,0.1,3.7l0.1,14.9c0,1.6-0.9,2.6-1.6,4c-1.1,2.2-1.2,4.8-0.5,7.2
	c0.4,1.2,1,2.2,1.5,3.4c1.1,2.8,1,5.8,1,8.8l-0.1,6.8c0,0.3,0,0.6,0.1,0.8c0.4,0.6,1.4,0.3,2-0.2l3.2-2.2c4.3,0.6,8.5,0.8,12.8,0.6
	c12.2-0.2,24.4,0.3,36.6,1.2c4.1,0.3,8.3,0.6,12.1-0.8c1.9-0.7,3.7-1.8,5.7-2.3c0.8-0.1,1.6-0.4,2.3-0.9c1.1-1,0.8-2.8,0.4-4.3
	c-0.4-1.3-0.8-2.5-1.4-3.7c-0.5-1.1-0.9-2.3-1.3-3.5c-0.6-2.7,0-5.8-1.7-8.1c-3.8-4.9-1.1-12.5-2.7-18.6c-0.5-1.9-1.3-3.8-1.8-5.8
	c-0.3-1.2-0.5-2.5-0.7-3.7c-0.5-2.7-0.7-5.4-0.7-8.2c0-1.4,0.2-2.7,0.4-4.1l1.2-9.5c1.5,2.8,2.5,5.8,3.1,9c1.1,4.7,2.4,9.3,4,13.8
	c0.9,2.7,1.8,5.5,2.8,8.2c0.6,1.5,1.1,3.1,1.4,4.8c0.2,1.3,0.2,2.7,0.4,4c0.3,2.8,1.3,5.6,2.9,7.9c0.3,0.6,0.8,1,1.4,1.2
	c0.4,0.1,0.8,0.1,1.2,0c4.2-0.8,8.3-2.3,12.2-4.2c0.8-0.3,1.5-0.9,2.1-1.6c1-1.7-0.1-3.8-0.6-5.7c-0.5-2.1-0.4-4.5-2-5.9
	c-5.6-4.8-2.8-14.5-5.7-21.3c-0.5-1.2-1.1-2.4-1.5-3.6c-0.3-0.9-0.6-1.9-0.8-2.9c-2-8-4.1-15.9-6.3-23.8c-2.3-8.2-2.1-16.7-5-24.7
	c-0.6-1.7-1.3-3.3-2.1-4.8c-1-1.6-2.3-3-3.9-4c-4.2-2.8-8.5-5.2-13.5-6.2S1056.4,60.2,1051.4,60.2z"/>
<path class="st7" d="M1013.8,40.8c-2.2-1.2-1.6-4.3-2-6.7c-0.8-5-6.4-8-7.7-12.8c1.5,0.2,3.1,0,4.5-0.6c0.3-1.6,0-3.3-0.9-4.7
	c4.6-1.9,8.4-5.6,13.1-7.3c5.9-2.1,12.5-0.8,18.5,1.2c3,1,6.1,2.3,7.9,4.8c2,2.8,1.9,6.5,1.8,10c-0.2,5.4-0.4,11-2.8,15.9
	c-3.1,6.2-11.7,11.9-18.9,10.2c-3-0.7-3.9-2.6-5.1-5.2c-0.8-1.6-1.1-3.5-2.8-4.3C1017.7,40.4,1015.6,41.7,1013.8,40.8z"/>
<g class="st11">
	<path d="M1079,156c0,0.4,0,0.9,0,1.3C1079,156.9,1079,156.4,1079,156z"/>
	<path d="M1009.4,172.2c1.1,2.8,1,5.8,1,8.8c0,0.8,0,1.5,0,2.3c-0.1-1.6-0.4-3.2-0.9-4.7c-0.4-1.1-1.1-2.2-1.5-3.4
		c-0.7-2-0.7-4.2,0.1-6.2C1008.4,170,1009,171.1,1009.4,172.2z"/>
</g>
<g class="st11">
	<path d="M1008.6,18.3L1008.6,18.3c-0.2-0.8-0.5-1.6-0.9-2.3c0.3-0.1,0.5-0.2,0.8-0.4C1008.8,16.5,1008.8,17.4,1008.6,18.3z"/>
</g>
<path class="st6" d="M502.3-14.5l-3.8-3.4c-13.4-12.3-22.3-20.4-22.3-30.3c-0.1-7.8,6.1-14.3,14-14.4c0.1,0,0.3,0,0.4,0
	c4.5,0,8.8,2,11.8,5.5c2.9-3.5,7.2-5.5,11.8-5.5c7.8-0.1,14.3,6.2,14.4,14c0,0.1,0,0.3,0,0.4c0,10-8.9,18-22.3,30.3L502.3-14.5z"/>
<path class="st2" d="M509-23.1l-3.8-3.4c-13.4-12.3-22.3-20.4-22.3-30.3c-0.1-7.8,6.1-14.3,14-14.4c0.1,0,0.3,0,0.4,0
	c4.5,0,8.8,2,11.8,5.5c2.9-3.5,7.2-5.5,11.8-5.5c7.8-0.1,14.3,6.2,14.4,14c0,0.1,0,0.3,0,0.4c0,10-8.9,18-22.3,30.3L509-23.1z"/>
</svg>
