<?xml version="1.0" encoding="utf-8"?>
<!-- Generator: Adobe Illustrator 19.0.0, SVG Export Plug-In . SVG Version: 6.00 Build 0)  -->
<svg version="1.1" id="e66cdcae-b662-46fb-b424-18ba1a805fb0"
	 xmlns="http://www.w3.org/2000/svg" xmlns:xlink="http://www.w3.org/1999/xlink" x="0px" y="0px" viewBox="282.3 -304.9 1000 710"
	 style="enable-background:new 282.3 -304.9 1000 710;" xml:space="preserve">
<style type="text/css">
	.st0{fill:#E03997;}
	.st1{fill:none;stroke:#3F3D56;stroke-miterlimit:10;}
	.st2{fill:#F86B75;}
	.st3{fill:#FAD375;}
	.st4{fill:#8BCC55;}
	.st5{fill:#F2F2F2;}
	.st6{fill:#79758C;}
	.st7{fill:#3F3D56;}
	.st8{fill:#A0616A;}
	.st9{fill:#55536E;}
</style>
<title>bookmarks</title>
<ellipse class="st0" cx="1033" cy="355" rx="151" ry="34"/>
<ellipse class="st1" cx="1047" cy="345" rx="151" ry="34"/>
<circle class="st0" cx="802.5" cy="15.5" r="30"/>
<circle class="st0" cx="923.5" cy="15.5" r="30"/>
<circle class="st0" cx="1044.5" cy="15.5" r="30"/>
<circle class="st2" cx="378.5" cy="-268.5" r="3"/>
<circle class="st3" cx="387.5" cy="-268.5" r="3"/>
<circle class="st4" cx="396.5" cy="-268.5" r="3"/>
<rect x="433" y="-222" class="st0" width="206" height="64"/>
<rect x="366.5" y="-278.5" class="st1" width="364" height="216"/>
<line class="st1" x1="366.5" y1="-262.1" x2="730.5" y2="-262.1"/>
<circle class="st1" cx="379.5" cy="-270.5" r="3"/>
<circle class="st1" cx="388.5" cy="-270.5" r="3"/>
<circle class="st1" cx="397.5" cy="-270.5" r="3"/>
<rect x="445.5" y="-234.5" class="st1" width="206" height="64"/>
<rect x="407" y="-130" class="st5" width="276" height="8.3"/>
<rect x="407" y="-110.1" class="st5" width="276" height="8.3"/>
<rect x="407" y="-90.3" class="st5" width="276" height="8.3"/>
<rect x="410" y="-134" class="st1" width="276" height="8.3"/>
<rect x="410" y="-114.1" class="st1" width="276" height="8.3"/>
<rect x="410" y="-94.3" class="st1" width="276" height="8.3"/>
<circle class="st2" cx="462.5" cy="105.5" r="3"/>
<circle class="st3" cx="471.5" cy="105.5" r="3"/>
<circle class="st4" cx="480.5" cy="105.5" r="3"/>
<rect x="517" y="152" class="st0" width="206" height="64"/>
<polyline class="st1" points="814.5,139.5 814.5,311.5 450.5,311.5 450.5,95.5 746.5,95.5 "/>
<line class="st1" x1="450.5" y1="111.9" x2="747" y2="111.9"/>
<circle class="st1" cx="463.5" cy="103.5" r="3"/>
<circle class="st1" cx="472.5" cy="103.5" r="3"/>
<circle class="st1" cx="481.5" cy="103.5" r="3"/>
<rect x="529.5" y="139.5" class="st1" width="206" height="64"/>
<circle class="st2" cx="758.5" cy="-67.5" r="3"/>
<circle class="st3" cx="767.5" cy="-67.5" r="3"/>
<circle class="st4" cx="776.5" cy="-67.5" r="3"/>
<rect x="746.5" y="-77.5" class="st1" width="364" height="216"/>
<line class="st1" x1="746.5" y1="-61.1" x2="1110.5" y2="-61.1"/>
<circle class="st1" cx="759.5" cy="-69.5" r="3"/>
<circle class="st1" cx="768.5" cy="-69.5" r="3"/>
<circle class="st1" cx="777.5" cy="-69.5" r="3"/>
<circle class="st1" cx="807.5" cy="10.5" r="30"/>
<circle class="st1" cx="928.5" cy="10.5" r="30"/>
<circle class="st1" cx="1049.5" cy="10.5" r="30"/>
<rect x="762" y="66" class="st5" width="82" height="8"/>
<rect x="884" y="66" class="st5" width="82" height="8"/>
<rect x="1006" y="66" class="st5" width="82" height="8"/>
<rect x="766" y="63" class="st1" width="82" height="8"/>
<rect x="888" y="63" class="st1" width="82" height="8"/>
<rect x="1010" y="63" class="st1" width="82" height="8"/>
<rect x="464" y="241" class="st5" width="63" height="54"/>
<rect x="580.5" y="241.5" class="st5" width="63" height="54"/>
<rect x="697" y="242" class="st5" width="63" height="54"/>
<rect x="473" y="231" class="st1" width="63" height="54"/>
<rect x="589.5" y="231.5" class="st1" width="63" height="54"/>
<rect x="706" y="232" class="st1" width="63" height="54"/>
<polygon class="st6" points="966.8,-84.4 938.7,-68.8 968.7,-79.4 "/>
<ellipse transform="matrix(-0.3089 -0.9511 0.9511 -0.3089 1355.5679 816.8686)" class="st7" cx="974.6" cy="-84.1" rx="15.8" ry="7.8"/>
<ellipse transform="matrix(-0.3089 -0.9511 0.9511 -0.3089 1398.9497 824.3378)" class="st7" cx="999" cy="-96.1" rx="11.1" ry="5.9"/>
<polygon class="st7" points="976.4,-93.2 995,-99.9 998.9,-88.9 980.9,-76.8 "/>
<path class="st8" d="M974.6-52.9l5-11c0,0,12-32,1-26s-15,22-15,22l-3,10L974.6-52.9z"/>
<path class="st8" d="M1111.6,113.1c0,0-17,33-22,34s-5-30-5-30s10-9,14-8S1111.6,113.1,1111.6,113.1z"/>
<path class="st9" d="M1086.6,321.1c0,0,9,5,5,16s-6,8-8,17s-20,8-21,4s-3-20,2-26S1086.6,321.1,1086.6,321.1z"/>
<path class="st9" d="M997.6,321.1c0,0-9,5-5,16s6,8,8,17s20,8,21,4s3-20-2-26C1014.6,326.1,997.6,321.1,997.6,321.1z"/>
<path class="st7" d="M1081.6,121.1c0,0,8,5,10,36s-1,66-2,74s1,20,3,26s-5,52-5,52c3,6.3,3,13.7,0,20c-5,11-20,22-24,11
	c-0.2-3.8-1.2-7.6-3-11c-3-6,2-30,2-30s-4-38-3-48s-12-69-14-79s-1-18-2-15s-19,86-19,86s2,53,1,60s4,21,1,26c-3,5-9,23-20,12
	s-9-15-10-20s0-11,0-19s-8-53-4-60s2-16,1-32s-2-93,8-107S1081.6,121.1,1081.6,121.1z"/>
<circle class="st8" cx="1057.1" cy="-90.4" r="24"/>
<path class="st8" d="M1072.6-80.9c0,0-1,36,4,42s-43-5-43-5s11-23,4-38S1072.6-80.9,1072.6-80.9z"/>
<path class="st9" d="M1081.6-42.9c0,0-2-8-14-10s-26.2-4-30.6,0s-6.4,9-9.4,9h-14l-22,39c0,0,11,13,8,37s-8,68-8,68
	c8,10.7,15,22.1,21,34c10,20,79,18,75-17c0,0-5-9-3-17s8-62,8-62l23-61C1115.6-22.9,1083.6-38.9,1081.6-42.9z"/>
<path class="st9" d="M1108.6-23.9h7c0,0,4,23,3,37s-1,47-1,47s4,8,3,15s-3,26-3,26s-1,27-20,13c0,0-6-3-3-16s-2-27-2-27s3-9,2-15
	s-5-25-5-25L1108.6-23.9z"/>
<path class="st9" d="M1018.6-40.9l-5-3c0,0-7-3-17,0s-15,2-19,1s-1-11-1-11s-8-14-16-6s-8,24-8,24s-5,10,13,16s26,15,26,15h20
	L1018.6-40.9z"/>
<path class="st7" d="M1055.5-61.7c-0.1-1.8-1.2-3.4-2.9-4.1c-1.1-0.4-2.3-0.6-3.4-0.7c-3.4-0.4-6.9-1.7-8.9-4.3
	c-2.6-3.5-1.9-8.3-4-12.1c-1-1.5-2.1-2.9-3.2-4.2c-3.7-4.9-4.3-11.3-4.7-17.3c-0.2-1.2,0-2.5,0.4-3.6c0.6-1,1.4-2,2.3-2.8
	c1.5-1.7,2.3-4,2.3-6.2c-0.1-4.7,6.5-7.8,11.3-9.4s9.8-1.9,14.8-1.9c2.9,0,5.9,0,8.5,1c1.5,0.7,3,1.5,4.3,2.5
	c5.6,4.1,10.8,9.1,12.6,15.4c0.7,2.9,1.1,5.9,1,8.8c0.1,0.9,0,1.9-0.4,2.7c-0.7,1.3-2.2,2.1-3.3,3.2c-1.9,2.1-1.6,5.2-1.8,7.9
	c-0.6,5.8-3.9,10.9-8.9,13.8c-1,0.5-2,1.2-2.8,1.9c-0.6,0.8-1.1,1.7-1.5,2.7C1065.1-64.4,1060.1-61.9,1055.5-61.7z"/>
<polygon class="st6" points="558.6,-278.2 545.3,-270.8 559.5,-275.8 "/>
<ellipse transform="matrix(-0.3089 -0.9511 0.9511 -0.3089 1000.4253 170.8618)" class="st7" cx="562.3" cy="-278" rx="7.5" ry="3.7"/>
<ellipse transform="matrix(-0.3089 -0.9511 0.9511 -0.3089 1021.0178 174.4073)" class="st7" cx="573.9" cy="-283.7" rx="5.3" ry="2.8"/>
<polygon class="st7" points="563.1,-282.4 572,-285.5 573.9,-280.3 565.3,-274.6 "/>
<polygon class="st6" points="648.6,93.8 635.3,101.2 649.5,96.2 "/>
<ellipse transform="matrix(-0.3089 -0.9511 0.9511 -0.3089 764.4236 743.3785)" class="st7" cx="652.3" cy="94" rx="7.5" ry="3.7"/>
<ellipse transform="matrix(-0.3089 -0.9511 0.9511 -0.3089 785.0162 746.924)" class="st7" cx="663.9" cy="88.3" rx="5.3" ry="2.8"/>
<polygon class="st7" points="653.1,89.6 662,86.5 663.9,91.7 655.3,97.4 "/>
</svg>
