<?xml version="1.0" encoding="utf-8"?>
<!-- Generator: Adobe Illustrator 19.0.0, SVG Export Plug-In . SVG Version: 6.00 Build 0)  -->
<svg version="1.1" id="Layer_1" xmlns="http://www.w3.org/2000/svg" xmlns:xlink="http://www.w3.org/1999/xlink" x="0px" y="0px"
	 viewBox="0 0 100 100" style="enable-background:new 0 0 100 100;" xml:space="preserve">
<style type="text/css">
	.st0{fill:#FFFFFF;}
</style>
<g>
	<path id="XMLID_45_" class="st0" d="M90,42H78.5c-0.2,0-0.4-0.2-0.4-0.4s0.2-0.4,0.4-0.4H90c0.2,0,0.4,0.2,0.4,0.4S90.3,42,90,42z"
		/>
</g>
<g>
	<path id="XMLID_44_" class="st0" d="M33.1,67.8H20.3c-0.2,0-0.4-0.2-0.4-0.4s0.2-0.4,0.4-0.4h12.8c0.2,0,0.4,0.2,0.4,0.4
		S33.3,67.8,33.1,67.8z"/>
</g>
<g>
	<path id="XMLID_43_" class="st0" d="M12.1,47.8H4.8c-0.2,0-0.4-0.2-0.4-0.4s0.2-0.4,0.4-0.4h7.3c0.2,0,0.4,0.2,0.4,0.4
		S12.3,47.8,12.1,47.8z"/>
</g>
<g>
	<path id="XMLID_42_" class="st0" d="M74,36.4H60.9c-0.2,0-0.4-0.2-0.4-0.4c0-0.2,0.2-0.4,0.4-0.4H74c0.2,0,0.4,0.2,0.4,0.4
		C74.5,36.2,74.3,36.4,74,36.4z"/>
</g>
<g>
	<path id="XMLID_41_" class="st0" d="M94.5,61.7h-4.9c-0.2,0-0.4-0.2-0.4-0.4c0-0.2,0.2-0.4,0.4-0.4h4.9c0.2,0,0.4,0.2,0.4,0.4
		C95,61.5,94.8,61.7,94.5,61.7z"/>
</g>
<g>
	<path id="XMLID_40_" class="st0" d="M7.8,39H3c-0.2,0-0.4-0.2-0.4-0.4c0-0.2,0.2-0.4,0.4-0.4h4.9c0.2,0,0.4,0.2,0.4,0.4
		C8.3,38.8,8.1,39,7.8,39z"/>
</g>
<g>
	<path id="XMLID_39_" class="st0" d="M18.9,31.1h-8.3c-0.2,0-0.4-0.2-0.4-0.4c0-0.2,0.2-0.4,0.4-0.4h8.3c0.2,0,0.4,0.2,0.4,0.4
		C19.4,30.9,19.2,31.1,18.9,31.1z"/>
</g>
<g>
	<path id="XMLID_38_" class="st0" d="M41,37.3H26c-0.2,0-0.4-0.2-0.4-0.4c0-0.2,0.2-0.4,0.4-0.4h15c0.2,0,0.4,0.2,0.4,0.4
		C41.5,37.1,41.3,37.3,41,37.3z"/>
</g>
<g>
	<path id="XMLID_37_" class="st0" d="M97,49.3h-7.2c-0.2,0-0.4-0.2-0.4-0.4c0-0.2,0.2-0.4,0.4-0.4H97c0.2,0,0.4,0.2,0.4,0.4
		C97.5,49.1,97.3,49.3,97,49.3z"/>
</g>
<g>
	<path id="XMLID_36_" class="st0" d="M80.4,65.2H68.6c-0.2,0-0.4-0.2-0.4-0.4c0-0.2,0.2-0.4,0.4-0.4h11.8c0.2,0,0.4,0.2,0.4,0.4
		C80.8,65,80.6,65.2,80.4,65.2z"/>
</g>
<g id="XMLID_14_">
	<path id="XMLID_35_" class="st0" d="M59.3,65.7c-0.5-0.9-0.9-2.1-0.9-3.5c0-0.6,0.1-1.1,0.2-1.6l-4.7,4.4
		C55.7,65.5,57.8,65.6,59.3,65.7z"/>
	<path id="XMLID_33_" class="st0" d="M54.1,33.4h-7.6c-0.3,0-0.5,0.3-0.3,0.6l2.8,4.6l3.3-0.2l7.2-0.4L55,33.7
		C54.8,33.5,54.5,33.4,54.1,33.4z"/>
	<path id="XMLID_29_" class="st0" d="M24.1,52.2c2.7-1.6,3.8-3,4.2-3.9c0.2-0.5,0-1-0.5-1.2c-0.8-0.3-2.2-0.6-3.7-0.6
		c-1.4,0-3,0.3-4.4,1.4c-0.1,0-0.1,0.1-0.2,0.2l-3,3.7c-0.6,0.7-0.1,1.7,0.7,1.8c0.4,0.1,0.9,0.1,1.4,0.1
		C20.2,53.7,22,53.4,24.1,52.2z"/>
	<path id="XMLID_27_" class="st0" d="M64.8,52.8c0.4-0.4,0.3-1.1-0.3-1.3c-1.5-0.5-4.4-1.3-8.2-1.3c-2.8,0-6,0.4-9.5,1.6
		c-0.2,0.1-0.3,0.2-0.4,0.3l-7.8,13c-0.5,0.9,0.1,2,1.1,2h8.6c0.7,0,1.3-0.3,1.8-0.7L64.8,52.8z"/>
	<ellipse id="XMLID_25_" class="st0" cx="61.5" cy="62.2" rx="1.7" ry="3.4"/>
	<path id="XMLID_48_" class="st0" d="M80,45c-0.1-0.1-0.1-0.1-0.2-0.2C79.9,44.8,80,44.9,80,45z"/>
	<path id="XMLID_50_" class="st0" d="M78.9,43.4c0.1,0.2,0.2,0.4,0.3,0.6C79.2,43.8,79,43.6,78.9,43.4z"/>
	<path id="XMLID_51_" class="st0" d="M79.6,44.5c-0.1-0.1-0.1-0.2-0.2-0.3C79.5,44.3,79.6,44.4,79.6,44.5z"/>
	<path id="XMLID_52_" class="st0" d="M81.3,46.1C81.3,46.1,81.2,46.1,81.3,46.1C81.2,46.1,81.3,46.1,81.3,46.1z"/>
	<path id="XMLID_53_" class="st0" d="M81.7,46.4C81.7,46.4,81.7,46.4,81.7,46.4C81.7,46.4,81.7,46.4,81.7,46.4z"/>
	<path id="XMLID_54_" class="st0" d="M80.9,45.8C80.8,45.7,80.8,45.7,80.9,45.8C80.8,45.7,80.8,45.7,80.9,45.8z"/>
	<path id="XMLID_55_" class="st0" d="M80.3,45.3c0,0,0.1,0.1,0.1,0.1C80.4,45.3,80.4,45.3,80.3,45.3z"/>
	<path id="XMLID_31_" class="st0" d="M86.3,48.4c-1.4-0.6-2.8-1-4.2-1.8c0,0,0,0,0,0c-1.3,1.1-6.4,1.4-8.3,1.1
		c-1.4-0.3-2.6-1.3-3.5-2.5c-0.5-0.7,0-1.6,0.9-1.6c5.5,0.2,7.1-1.1,7.2-1.1c0.2,0.3,0.4,0.5,0.6,0.8c-1.7-3.1-4.9-4.6-8.1-4.6
		c-0.2,0-0.4,0-0.6,0c-3.4,0.2-11.6,0.7-17.7,1c-6.1,0.4-25.2,1.5-25.2,1.5L23,34.9c-0.8-1.3-2.2-2-3.7-2c-0.1,0-0.2,0-0.3,0
		l-6.2,0.4c-1,0.1-1.6,1.1-1.2,2.1c1.5,2.8,4.2,8,6.5,12.2l0.3-0.3c0.1-0.2,0.3-0.3,0.4-0.4c1.5-1.1,3.2-1.7,5.3-1.7
		c1.7,0,3.2,0.4,4.1,0.7c0.6,0.2,1.1,0.7,1.4,1.3c0.3,0.6,0.2,1.3-0.1,1.9c-0.8,1.5-2.4,3-4.8,4.5c-0.4,0.2-0.8,0.4-1.1,0.6
		c0.4,0.1,0.7,0.3,1.1,0.4c4.8,1.1,10.8,1.8,17.2,2.2l3.1-5.2c0.3-0.5,0.7-0.8,1.2-1c3.3-1.1,6.6-1.7,10-1.7c4,0,7.1,0.8,8.6,1.3
		c0.8,0.3,1.3,0.9,1.5,1.7c0.2,0.8-0.1,1.6-0.7,2.1l-3.6,3.4c8.1,0,15-0.2,18.3-0.4C91.2,56.5,89,49.5,86.3,48.4z M36.5,47.9
		c0,0.3-0.3,0.6-0.6,0.6h-1.2c-0.3,0-0.6-0.3-0.6-0.6v-2c0-0.3,0.3-0.6,0.6-0.6h1.2c0.3,0,0.6,0.3,0.6,0.6V47.9z M43.2,47.9
		c0,0.3-0.3,0.6-0.6,0.6h-1.2c-0.3,0-0.6-0.3-0.6-0.6v-2c0-0.3,0.3-0.6,0.6-0.6h1.2c0.3,0,0.6,0.3,0.6,0.6V47.9z M49.8,47.9
		c0,0.3-0.3,0.6-0.6,0.6h-1.2c-0.3,0-0.6-0.3-0.6-0.6v-2c0-0.3,0.3-0.6,0.6-0.6h1.2c0.3,0,0.6,0.3,0.6,0.6V47.9z M56.5,47.9
		c0,0.3-0.3,0.6-0.6,0.6h-1.2c-0.3,0-0.6-0.3-0.6-0.6v-2c0-0.3,0.3-0.6,0.6-0.6h1.2c0.3,0,0.6,0.3,0.6,0.6V47.9z M63.2,47.9
		c0,0.3-0.3,0.6-0.6,0.6h-1.2c-0.3,0-0.6-0.3-0.6-0.6v-2c0-0.3,0.3-0.6,0.6-0.6h1.2c0.3,0,0.6,0.3,0.6,0.6V47.9z"/>
</g>
</svg>
