<?xml version="1.0" encoding="utf-8"?>
<!-- Generator: Adobe Illustrator 19.0.0, SVG Export Plug-In . SVG Version: 6.00 Build 0)  -->
<svg version="1.1" id="Layer_1" xmlns="http://www.w3.org/2000/svg" xmlns:xlink="http://www.w3.org/1999/xlink" x="0px" y="0px"
	 viewBox="0 0 100 100" style="enable-background:new 0 0 100 100;" xml:space="preserve">
<style type="text/css">
	.st0{fill:#FFFFFF;}
</style>
<g id="XMLID_1_">
	<g id="XMLID_34_">
		<path id="XMLID_13_" class="st0" d="M45.1,58.1l-2.5-2.5c-0.4-0.4-1.1-0.3-1.3,0.3l-1.8,4.8l-0.3,0.9c-0.3,0.7,0.6,1.4,1.2,1
			l4.7-3.2C45.4,59.1,45.5,58.5,45.1,58.1z"/>
		<path id="XMLID_12_" class="st0" d="M76.7,33.1L22.4,43.8c-0.8,0.2-0.9,1.3-0.1,1.6l11.5,3.2c0.2,0,0.3,0,0.5,0l25.1-8.1
			c0.9-0.3,1.5,0.9,0.7,1.5L43.5,52.9c-0.4,0.3-0.5,0.9-0.1,1.3l10.2,10.1c0.3,0.3,0.9,0.3,1.2-0.1l22.8-29.8
			C78,33.8,77.4,32.9,76.7,33.1z"/>
		<path id="XMLID_11_" class="st0" d="M55.6,42.9l-20.1,7C35.2,50,35,50.4,35,50.8l1.4,9.2c0.1,0.8,1.3,0.9,1.6,0.2l2.6-7l0.1-0.3
			l0.4-0.2l14.7-9.2C56.2,43.2,55.9,42.8,55.6,42.9z"/>
	</g>
	<g id="XMLID_32_">
		<path id="XMLID_10_" class="st0" d="M87.6,43.3H76.8c-0.2,0-0.4-0.2-0.4-0.4c0-0.2,0.2-0.4,0.4-0.4h10.8c0.2,0,0.4,0.2,0.4,0.4
			C88,43.1,87.8,43.3,87.6,43.3z"/>
	</g>
	<g id="XMLID_30_">
		<path id="XMLID_9_" class="st0" d="M23.8,63.2h-12c-0.2,0-0.4-0.2-0.4-0.4s0.2-0.4,0.4-0.4h12c0.2,0,0.4,0.2,0.4,0.4
			S24.1,63.2,23.8,63.2z"/>
	</g>
	<g id="XMLID_28_">
		<path id="XMLID_8_" class="st0" d="M26.5,52.2H3.5C3.2,52.2,3,52,3,51.8c0-0.2,0.2-0.4,0.4-0.4h23.1c0.2,0,0.4,0.2,0.4,0.4
			C27,52,26.8,52.2,26.5,52.2z"/>
	</g>
	<g id="XMLID_26_">
		<path id="XMLID_7_" class="st0" d="M59.4,33.5H47c-0.2,0-0.4-0.2-0.4-0.4s0.2-0.4,0.4-0.4h12.3c0.2,0,0.4,0.2,0.4,0.4
			S59.6,33.5,59.4,33.5z"/>
	</g>
	<g id="XMLID_24_">
		<path id="XMLID_6_" class="st0" d="M71.4,57h-4.5c-0.2,0-0.4-0.2-0.4-0.4c0-0.2,0.2-0.4,0.4-0.4h4.5c0.2,0,0.4,0.2,0.4,0.4
			C71.8,56.8,71.7,57,71.4,57z"/>
	</g>
	<g id="XMLID_22_">
		<path id="XMLID_5_" class="st0" d="M16.4,45.1h-11c-0.2,0-0.4-0.2-0.4-0.4c0-0.2,0.2-0.4,0.4-0.4h11c0.2,0,0.4,0.2,0.4,0.4
			C16.8,44.9,16.6,45.1,16.4,45.1z"/>
	</g>
	<g id="XMLID_20_">
		<path id="XMLID_4_" class="st0" d="M96.5,35.4h-14c-0.2,0-0.4-0.2-0.4-0.4c0-0.2,0.2-0.4,0.4-0.4h14c0.2,0,0.4,0.2,0.4,0.4
			C97,35.2,96.8,35.4,96.5,35.4z"/>
	</g>
	<g id="XMLID_18_">
		<path id="XMLID_3_" class="st0" d="M94.4,50.1H79.5c-0.2,0-0.4-0.2-0.4-0.4c0-0.2,0.2-0.4,0.4-0.4h14.9c0.2,0,0.4,0.2,0.4,0.4
			C94.8,49.9,94.6,50.1,94.4,50.1z"/>
	</g>
	<g id="XMLID_16_">
		<path id="XMLID_2_" class="st0" d="M75.8,67.4h-11c-0.2,0-0.4-0.2-0.4-0.4c0-0.2,0.2-0.4,0.4-0.4h11c0.2,0,0.4,0.2,0.4,0.4
			C76.2,67.2,76,67.4,75.8,67.4z"/>
	</g>
</g>
</svg>
