<?xml version="1.0" encoding="utf-8"?>
<!-- Generator: Adobe Illustrator 19.0.0, SVG Export Plug-In . SVG Version: 6.00 Build 0)  -->
<svg version="1.1" id="Layer_1" xmlns="http://www.w3.org/2000/svg" xmlns:xlink="http://www.w3.org/1999/xlink" x="0px" y="0px"
	 viewBox="0 0 100 100" style="enable-background:new 0 0 100 100;" xml:space="preserve">
<style type="text/css">
	.st0{fill:#FFFFFF;}
</style>
<g id="XMLID_2_">
	<path id="XMLID_7_" class="st0" d="M77.4,44.4c0.3,0.2,0.5,0.3,0.8,0.5C78,44.7,77.7,44.6,77.4,44.4z"/>
	<path id="XMLID_34_" class="st0" d="M78.2,58.4c-0.3,0.2-0.5,0.3-0.8,0.5C77.7,58.7,78,58.5,78.2,58.4z"/>
	<path id="XMLID_35_" class="st0" d="M82.5,48.2c-1.1-0.9-2.4-2-3.9-3c-0.3,1.8-0.6,4-0.6,6.5c0,2.5,0.3,4.7,0.6,6.5
		c1.6-1.1,2.9-2.1,3.9-3C84.6,53.3,84.6,50,82.5,48.2z"/>
	<g id="XMLID_63_">
		<path id="XMLID_24_" class="st0" d="M90.9,39.1H78.3c-0.3,0-0.5-0.2-0.5-0.5c0-0.3,0.2-0.5,0.5-0.5h12.6c0.3,0,0.5,0.2,0.5,0.5
			C91.4,38.9,91.2,39.1,90.9,39.1z"/>
	</g>
	<g id="XMLID_61_">
		<path id="XMLID_23_" class="st0" d="M82.6,68.5H70c-0.3,0-0.5-0.2-0.5-0.5s0.2-0.5,0.5-0.5h12.6c0.3,0,0.5,0.2,0.5,0.5
			S82.9,68.5,82.6,68.5z"/>
	</g>
	<g id="XMLID_59_">
		<path id="XMLID_22_" class="st0" d="M21.6,74.6h-14c-0.3,0-0.5-0.2-0.5-0.5s0.2-0.5,0.5-0.5h14c0.3,0,0.5,0.2,0.5,0.5
			S21.8,74.6,21.6,74.6z"/>
	</g>
	<g id="XMLID_57_">
		<path id="XMLID_21_" class="st0" d="M11.1,43.8h-8c-0.3,0-0.5-0.2-0.5-0.5c0-0.3,0.2-0.5,0.5-0.5h8c0.3,0,0.5,0.2,0.5,0.5
			C11.6,43.6,11.4,43.8,11.1,43.8z"/>
	</g>
	<g id="XMLID_55_">
		<path id="XMLID_20_" class="st0" d="M20,63.3h-8c-0.3,0-0.5-0.2-0.5-0.5c0-0.3,0.2-0.5,0.5-0.5h8c0.3,0,0.5,0.2,0.5,0.5
			C20.5,63.1,20.3,63.3,20,63.3z"/>
	</g>
	<g id="XMLID_53_">
		<path id="XMLID_19_" class="st0" d="M66.3,31.9H51.9c-0.3,0-0.5-0.2-0.5-0.5c0-0.3,0.2-0.5,0.5-0.5h14.4c0.3,0,0.5,0.2,0.5,0.5
			C66.8,31.7,66.6,31.9,66.3,31.9z"/>
	</g>
	<g id="XMLID_51_">
		<path id="XMLID_18_" class="st0" d="M94.3,61.9h-7.2c-0.3,0-0.5-0.2-0.5-0.5c0-0.3,0.2-0.5,0.5-0.5h7.2c0.3,0,0.5,0.2,0.5,0.5
			C94.8,61.7,94.6,61.9,94.3,61.9z"/>
	</g>
	<g id="XMLID_49_">
		<path id="XMLID_17_" class="st0" d="M48.7,25.2h-5.3c-0.3,0-0.5-0.2-0.5-0.5s0.2-0.5,0.5-0.5h5.3c0.3,0,0.5,0.2,0.5,0.5
			S49,25.2,48.7,25.2z"/>
	</g>
	<g id="XMLID_47_">
		<path id="XMLID_16_" class="st0" d="M20.4,37.1H10.3c-0.3,0-0.5-0.2-0.5-0.5c0-0.3,0.2-0.5,0.5-0.5h10.1c0.3,0,0.5,0.2,0.5,0.5
			C20.9,36.9,20.7,37.1,20.4,37.1z"/>
	</g>
	<g id="XMLID_45_">
		<path id="XMLID_15_" class="st0" d="M14.4,29.1H5.3c-0.3,0-0.5-0.2-0.5-0.5s0.2-0.5,0.5-0.5h9.1c0.3,0,0.5,0.2,0.5,0.5
			S14.7,29.1,14.4,29.1z"/>
	</g>
	<g id="XMLID_43_">
		<path id="XMLID_14_" class="st0" d="M96.9,46.5H89c-0.3,0-0.5-0.2-0.5-0.5c0-0.3,0.2-0.5,0.5-0.5h7.9c0.3,0,0.5,0.2,0.5,0.5
			C97.3,46.3,97.1,46.5,96.9,46.5z"/>
	</g>
	<g id="XMLID_41_">
		<path id="XMLID_13_" class="st0" d="M61.3,74.1H48.4c-0.3,0-0.5-0.2-0.5-0.5c0-0.3,0.2-0.5,0.5-0.5h12.9c0.3,0,0.5,0.2,0.5,0.5
			C61.8,73.9,61.6,74.1,61.3,74.1z"/>
	</g>
	<path id="XMLID_9_" class="st0" d="M24.2,51.6c0,0,0-5.1,0-6.5c-3.5,0-5.3,1.9-5.3,1.9s1.8,0.2,2.3,1.2c-3.2,0.5-5.8,3.4-5.8,3.4
		s2.5,2.9,5.8,3.4c-0.5,1-2.3,1.2-2.3,1.2s1.8,1.9,5.3,1.9C24.2,56.8,24.2,51.6,24.2,51.6z"/>
	<path id="XMLID_28_" class="st0" d="M27.1,61.4v14.4c11.1,0,16.6-5.1,19.3-9.2C36.9,65.2,30,62.6,27.1,61.4z M36.1,69.9l-1,0.6
		c-0.1,0.1-0.2,0.1-0.2,0.3l-0.2,1.2c-0.1,0.3-0.4,0.4-0.6,0.2l-0.9-0.8c-0.1-0.1-0.2-0.1-0.3-0.1l-1.2,0.1c-0.3,0-0.5-0.3-0.4-0.5
		l0.5-1.1c0-0.1,0-0.2,0-0.3l-0.5-1.1c-0.1-0.3,0.1-0.6,0.4-0.5l1.2,0.1c0.1,0,0.2,0,0.3-0.1l0.9-0.8c0.2-0.2,0.6-0.1,0.6,0.2
		l0.2,1.2c0,0.1,0.1,0.2,0.2,0.3l1,0.6C36.4,69.4,36.4,69.7,36.1,69.9z"/>
	<path id="XMLID_31_" class="st0" d="M27.1,27.5v14.4c2.9-1.2,9.8-3.8,19.3-5.2C43.7,32.6,38.1,27.5,27.1,27.5z M36.1,34.1l-1,0.6
		c-0.1,0.1-0.2,0.1-0.2,0.3l-0.2,1.2c-0.1,0.3-0.4,0.4-0.6,0.2l-0.9-0.8c-0.1-0.1-0.2-0.1-0.3-0.1l-1.2,0.1c-0.3,0-0.5-0.3-0.4-0.5
		l0.5-1.1c0-0.1,0-0.2,0-0.3l-0.5-1.1c-0.1-0.3,0.1-0.6,0.4-0.5l1.2,0.1c0.1,0,0.2,0,0.3-0.1l0.9-0.8c0.2-0.2,0.6-0.1,0.6,0.2
		l0.2,1.2c0,0.1,0.1,0.2,0.2,0.3l1,0.6C36.4,33.6,36.4,33.9,36.1,34.1z"/>
	<g id="XMLID_1_">
		<path id="XMLID_27_" class="st0" d="M77.1,44.2c-5.7-3.5-14.2-6.7-25.6-5.7c-15.5,1.4-25.9,6.4-25.9,6.4v13.5c0,0,10.4,5,25.9,6.4
			c11.3,1,19.8-2.2,25.6-5.7c-0.4-1.9-0.8-4.5-0.8-7.5C76.3,48.7,76.7,46.1,77.1,44.2z M45.7,52c-2.3,0.7-7.7,2.1-12.9,2.1
			c-2.5,0-4.3-0.4-5.3-0.8c-0.6-0.2-0.9-0.7-0.9-1.3v-0.3v-0.3c0-0.6,0.4-1.1,0.9-1.3c1-0.4,2.7-0.8,5.3-0.8
			c5.1,0,10.5,1.4,12.9,2.1C46.1,51.4,46.1,51.9,45.7,52z M61.4,59c-4.1,0-7.4-3.3-7.4-7.4c0-4.1,3.3-7.4,7.4-7.4
			c4.1,0,7.4,3.3,7.4,7.4C68.8,55.7,65.5,59,61.4,59z"/>
		<path id="XMLID_38_" class="st0" d="M61.4,46.1c-3,0-5.5,2.5-5.5,5.5c0,3,2.5,5.5,5.5,5.5c3,0,5.5-2.5,5.5-5.5
			C66.9,48.6,64.5,46.1,61.4,46.1z M61.4,55.5c-2.1,0-3.9-1.7-3.9-3.9c0-2.1,1.7-3.9,3.9-3.9s3.9,1.7,3.9,3.9
			C65.3,53.8,63.6,55.5,61.4,55.5z"/>
	</g>
</g>
</svg>
